<svg width="731" height="265" viewBox="0 0 731 265" fill="none" xmlns="http://www.w3.org/2000/svg">
<g filter="url(#filter0_d_148_181)">
<rect x="38" y="14" width="649" height="183" rx="52" fill="#F2F5FF"/>
<rect x="38" y="14" width="649" height="183" rx="52" fill="white"/>
</g>
<path d="M514.126 92.1966C512.119 92.1966 510.329 91.8272 508.757 91.0886C507.194 90.35 505.954 89.332 505.035 88.0346C504.117 86.7373 503.638 85.2505 503.601 83.5744H509.566C509.633 84.7013 510.106 85.6151 510.987 86.3159C511.868 87.0166 512.914 87.367 514.126 87.367C515.092 87.367 515.944 87.1539 516.683 86.7278C517.431 86.2922 518.013 85.6909 518.43 84.9238C518.856 84.1473 519.069 83.2572 519.069 82.2534C519.069 81.2306 518.852 80.331 518.416 79.5545C517.99 78.778 517.398 78.1719 516.64 77.7363C515.883 77.3007 515.016 77.0782 514.041 77.0687C513.189 77.0687 512.36 77.2439 511.555 77.5943C510.76 77.9447 510.139 78.4229 509.694 79.0289L504.226 78.0488L505.603 62.7079H523.388V67.7363H510.674L509.922 75.0233H510.092C510.603 74.3036 511.375 73.707 512.407 73.2335C513.44 72.76 514.595 72.5233 515.873 72.5233C517.625 72.5233 519.188 72.9352 520.561 73.7591C521.934 74.5829 523.018 75.7145 523.814 77.1539C524.609 78.5839 525.002 80.2316 524.993 82.0971C525.002 84.0574 524.548 85.7998 523.629 87.3244C522.72 88.8395 521.446 90.0327 519.808 90.9039C518.179 91.7657 516.285 92.1966 514.126 92.1966ZM528.842 86.6852V81.8414L540.987 62.7079H545.163V69.4125H542.691L535.035 81.5289V81.7562H552.294V86.6852H528.842ZM542.805 91.7988V85.2079L542.919 83.063V62.7079H548.686V91.7988H542.805Z" fill="#7756AC"/>
<path d="M485.346 137.518C483.301 137.518 481.54 137.035 480.062 136.069C478.585 135.103 477.449 133.773 476.653 132.078C475.858 130.383 475.46 128.446 475.46 126.268C475.46 124.052 475.867 122.097 476.682 120.402C477.505 118.697 478.651 117.367 480.119 116.41C481.596 115.444 483.32 114.961 485.29 114.961C486.824 114.961 488.206 115.245 489.437 115.813C490.668 116.382 491.677 117.177 492.463 118.2C493.249 119.223 493.737 120.416 493.926 121.779H490.574C490.318 120.785 489.75 119.904 488.869 119.137C487.998 118.361 486.824 117.973 485.346 117.973C484.04 117.973 482.894 118.313 481.909 118.995C480.933 119.668 480.171 120.619 479.622 121.85C479.082 123.072 478.812 124.507 478.812 126.154C478.812 127.84 479.077 129.308 479.608 130.558C480.148 131.808 480.905 132.778 481.88 133.47C482.865 134.161 484.021 134.507 485.346 134.507C486.218 134.507 487.008 134.355 487.719 134.052C488.429 133.749 489.03 133.313 489.523 132.745C490.015 132.177 490.365 131.495 490.574 130.7H493.926C493.737 131.988 493.268 133.148 492.52 134.18C491.781 135.203 490.801 136.017 489.579 136.623C488.367 137.22 486.956 137.518 485.346 137.518ZM505.247 137.575C503.864 137.575 502.61 137.314 501.483 136.794C500.356 136.263 499.461 135.501 498.798 134.507C498.135 133.503 497.804 132.291 497.804 130.87C497.804 129.62 498.05 128.607 498.542 127.831C499.035 127.045 499.693 126.429 500.517 125.984C501.341 125.539 502.25 125.207 503.244 124.99C504.248 124.762 505.256 124.582 506.27 124.45C507.595 124.279 508.67 124.152 509.494 124.066C510.327 123.972 510.933 123.815 511.312 123.598C511.701 123.38 511.895 123.001 511.895 122.461V122.348C511.895 120.946 511.511 119.857 510.744 119.081C509.987 118.304 508.836 117.916 507.292 117.916C505.692 117.916 504.437 118.266 503.528 118.967C502.619 119.668 501.98 120.416 501.611 121.211L498.429 120.075C498.997 118.749 499.755 117.717 500.701 116.978C501.658 116.23 502.7 115.709 503.826 115.416C504.963 115.113 506.08 114.961 507.179 114.961C507.88 114.961 508.684 115.046 509.594 115.217C510.512 115.378 511.398 115.714 512.25 116.225C513.112 116.737 513.826 117.509 514.395 118.541C514.963 119.573 515.247 120.956 515.247 122.688V137.063H511.895V134.109H511.724C511.497 134.582 511.118 135.089 510.588 135.629C510.058 136.169 509.352 136.628 508.471 137.007C507.591 137.385 506.516 137.575 505.247 137.575ZM505.758 134.563C507.084 134.563 508.201 134.303 509.111 133.782C510.029 133.261 510.72 132.589 511.184 131.765C511.658 130.941 511.895 130.075 511.895 129.166V126.098C511.753 126.268 511.44 126.424 510.957 126.566C510.484 126.699 509.934 126.817 509.309 126.921C508.694 127.016 508.093 127.101 507.505 127.177C506.928 127.243 506.459 127.3 506.099 127.348C505.228 127.461 504.414 127.646 503.656 127.902C502.908 128.148 502.302 128.522 501.838 129.024C501.383 129.516 501.156 130.188 501.156 131.041C501.156 132.206 501.587 133.086 502.449 133.683C503.32 134.27 504.423 134.563 505.758 134.563ZM521.366 137.063V115.245H524.604V118.541H524.831C525.229 117.461 525.949 116.585 526.991 115.913C528.032 115.241 529.206 114.904 530.513 114.904C530.759 114.904 531.067 114.909 531.437 114.919C531.806 114.928 532.085 114.942 532.275 114.961V118.37C532.161 118.342 531.901 118.299 531.493 118.242C531.096 118.176 530.674 118.143 530.229 118.143C529.169 118.143 528.222 118.366 527.388 118.811C526.564 119.246 525.911 119.852 525.428 120.629C524.955 121.396 524.718 122.272 524.718 123.257V137.063H521.366ZM543.823 137.518C542.005 137.518 540.4 137.059 539.008 136.14C537.616 135.212 536.527 133.905 535.741 132.22C534.955 130.525 534.562 128.522 534.562 126.211C534.562 123.92 534.955 121.931 535.741 120.245C536.527 118.56 537.62 117.258 539.022 116.339C540.423 115.42 542.043 114.961 543.88 114.961C545.3 114.961 546.422 115.198 547.246 115.671C548.08 116.135 548.714 116.666 549.15 117.262C549.595 117.849 549.94 118.332 550.187 118.711H550.471V107.973H553.823V137.063H550.584V133.711H550.187C549.94 134.109 549.59 134.611 549.135 135.217C548.681 135.813 548.032 136.349 547.189 136.822C546.347 137.286 545.224 137.518 543.823 137.518ZM544.277 134.507C545.622 134.507 546.759 134.156 547.687 133.456C548.615 132.745 549.32 131.765 549.803 130.515C550.286 129.256 550.527 127.802 550.527 126.154C550.527 124.526 550.291 123.1 549.817 121.879C549.344 120.648 548.643 119.691 547.715 119.009C546.787 118.318 545.641 117.973 544.277 117.973C542.857 117.973 541.673 118.337 540.726 119.066C539.789 119.786 539.083 120.766 538.61 122.007C538.146 123.238 537.914 124.62 537.914 126.154C537.914 127.707 538.151 129.118 538.624 130.387C539.107 131.647 539.817 132.651 540.755 133.399C541.702 134.137 542.876 134.507 544.277 134.507ZM575.883 120.132L572.871 120.984C572.682 120.482 572.402 119.994 572.033 119.521C571.673 119.038 571.181 118.64 570.556 118.328C569.931 118.015 569.131 117.859 568.155 117.859C566.82 117.859 565.707 118.167 564.817 118.782C563.937 119.388 563.496 120.16 563.496 121.098C563.496 121.931 563.799 122.589 564.405 123.072C565.011 123.555 565.958 123.957 567.246 124.279L570.485 125.075C572.436 125.548 573.889 126.273 574.846 127.248C575.802 128.214 576.28 129.459 576.28 130.984C576.28 132.234 575.92 133.351 575.201 134.336C574.491 135.321 573.496 136.098 572.218 136.666C570.939 137.234 569.453 137.518 567.758 137.518C565.532 137.518 563.69 137.035 562.232 136.069C560.774 135.103 559.85 133.692 559.462 131.836L562.644 131.041C562.947 132.215 563.52 133.096 564.363 133.683C565.215 134.27 566.328 134.563 567.701 134.563C569.263 134.563 570.504 134.232 571.422 133.569C572.35 132.897 572.814 132.092 572.814 131.154C572.814 130.397 572.549 129.762 572.019 129.251C571.489 128.73 570.674 128.342 569.576 128.086L565.939 127.234C563.941 126.76 562.473 126.027 561.536 125.032C560.608 124.028 560.144 122.774 560.144 121.268C560.144 120.037 560.49 118.948 561.181 118.001C561.882 117.054 562.833 116.311 564.036 115.771C565.248 115.231 566.621 114.961 568.155 114.961C570.314 114.961 572.009 115.435 573.241 116.382C574.481 117.329 575.362 118.579 575.883 120.132Z" fill="#4A4848"/>
<path d="M118.741 150.119C117.104 150.119 115.695 149.733 114.513 148.96C113.332 148.188 112.422 147.123 111.786 145.767C111.15 144.411 110.832 142.862 110.832 141.119C110.832 139.347 111.157 137.782 111.809 136.426C112.468 135.063 113.385 133.998 114.559 133.233C115.741 132.46 117.119 132.074 118.695 132.074C119.922 132.074 121.029 132.301 122.013 132.756C122.998 133.21 123.805 133.847 124.434 134.665C125.063 135.483 125.453 136.438 125.604 137.529H122.922C122.718 136.733 122.263 136.029 121.559 135.415C120.862 134.794 119.922 134.483 118.741 134.483C117.695 134.483 116.779 134.756 115.991 135.301C115.21 135.839 114.6 136.601 114.161 137.585C113.729 138.563 113.513 139.71 113.513 141.029C113.513 142.377 113.725 143.551 114.15 144.551C114.582 145.551 115.188 146.328 115.968 146.881C116.756 147.434 117.68 147.71 118.741 147.71C119.438 147.71 120.07 147.589 120.638 147.347C121.207 147.104 121.688 146.756 122.082 146.301C122.475 145.847 122.756 145.301 122.922 144.665H125.604C125.453 145.695 125.078 146.623 124.479 147.449C123.888 148.267 123.104 148.919 122.127 149.404C121.157 149.881 120.029 150.119 118.741 150.119ZM136.616 150.119C135.04 150.119 133.657 149.744 132.468 148.994C131.286 148.244 130.362 147.195 129.695 145.847C129.036 144.498 128.707 142.923 128.707 141.119C128.707 139.301 129.036 137.714 129.695 136.358C130.362 135.002 131.286 133.949 132.468 133.199C133.657 132.449 135.04 132.074 136.616 132.074C138.191 132.074 139.57 132.449 140.752 133.199C141.941 133.949 142.866 135.002 143.525 136.358C144.191 137.714 144.525 139.301 144.525 141.119C144.525 142.923 144.191 144.498 143.525 145.847C142.866 147.195 141.941 148.244 140.752 148.994C139.57 149.744 138.191 150.119 136.616 150.119ZM136.616 147.71C137.813 147.71 138.797 147.404 139.57 146.79C140.343 146.176 140.915 145.369 141.286 144.369C141.657 143.369 141.843 142.286 141.843 141.119C141.843 139.953 141.657 138.866 141.286 137.858C140.915 136.851 140.343 136.036 139.57 135.415C138.797 134.794 137.813 134.483 136.616 134.483C135.419 134.483 134.434 134.794 133.661 135.415C132.888 136.036 132.316 136.851 131.945 137.858C131.574 138.866 131.388 139.953 131.388 141.119C131.388 142.286 131.574 143.369 131.945 144.369C132.316 145.369 132.888 146.176 133.661 146.79C134.434 147.404 135.419 147.71 136.616 147.71ZM148.618 149.756V132.301H151.209V135.029H151.437C151.8 134.097 152.387 133.373 153.198 132.858C154.009 132.335 154.982 132.074 156.118 132.074C157.27 132.074 158.228 132.335 158.993 132.858C159.766 133.373 160.368 134.097 160.8 135.029H160.982C161.429 134.127 162.1 133.411 162.993 132.881C163.887 132.343 164.959 132.074 166.209 132.074C167.77 132.074 169.047 132.563 170.039 133.54C171.031 134.51 171.528 136.021 171.528 138.074V149.756H168.846V138.074C168.846 136.786 168.493 135.866 167.789 135.313C167.084 134.76 166.255 134.483 165.3 134.483C164.073 134.483 163.122 134.854 162.448 135.597C161.774 136.332 161.437 137.263 161.437 138.392V149.756H158.709V137.801C158.709 136.809 158.387 136.01 157.743 135.404C157.1 134.79 156.27 134.483 155.255 134.483C154.558 134.483 153.906 134.669 153.3 135.04C152.702 135.411 152.217 135.926 151.846 136.585C151.482 137.237 151.3 137.991 151.3 138.847V149.756H148.618ZM176.431 156.301V132.301H179.022V135.074H179.34C179.537 134.771 179.81 134.385 180.158 133.915C180.514 133.438 181.022 133.013 181.681 132.642C182.348 132.263 183.249 132.074 184.386 132.074C185.855 132.074 187.151 132.441 188.272 133.176C189.393 133.911 190.268 134.953 190.897 136.301C191.526 137.65 191.84 139.241 191.84 141.074C191.84 142.923 191.526 144.525 190.897 145.881C190.268 147.229 189.397 148.275 188.283 149.017C187.17 149.752 185.886 150.119 184.431 150.119C183.31 150.119 182.412 149.934 181.738 149.563C181.064 149.184 180.545 148.756 180.181 148.279C179.817 147.794 179.537 147.392 179.34 147.074H179.113V156.301H176.431ZM179.067 141.029C179.067 142.347 179.261 143.51 179.647 144.517C180.033 145.517 180.598 146.301 181.34 146.869C182.083 147.43 182.992 147.71 184.067 147.71C185.189 147.71 186.124 147.415 186.874 146.824C187.632 146.226 188.2 145.423 188.579 144.415C188.965 143.4 189.158 142.271 189.158 141.029C189.158 139.801 188.969 138.695 188.59 137.71C188.219 136.718 187.654 135.934 186.897 135.358C186.147 134.775 185.204 134.483 184.067 134.483C182.976 134.483 182.06 134.76 181.317 135.313C180.575 135.858 180.014 136.623 179.636 137.608C179.257 138.585 179.067 139.726 179.067 141.029ZM198.613 126.483V149.756H195.931V126.483H198.613ZM210.843 150.119C209.161 150.119 207.71 149.748 206.491 149.006C205.279 148.256 204.343 147.21 203.684 145.869C203.032 144.521 202.707 142.953 202.707 141.165C202.707 139.377 203.032 137.801 203.684 136.438C204.343 135.066 205.26 133.998 206.434 133.233C207.616 132.46 208.994 132.074 210.57 132.074C211.479 132.074 212.377 132.226 213.263 132.529C214.15 132.832 214.957 133.324 215.684 134.006C216.411 134.68 216.991 135.574 217.422 136.688C217.854 137.801 218.07 139.173 218.07 140.801V141.938H204.616V139.619H215.343C215.343 138.635 215.146 137.756 214.752 136.983C214.366 136.21 213.813 135.601 213.093 135.154C212.381 134.707 211.54 134.483 210.57 134.483C209.502 134.483 208.578 134.748 207.797 135.279C207.025 135.801 206.43 136.483 206.013 137.324C205.597 138.165 205.388 139.066 205.388 140.029V141.574C205.388 142.892 205.616 144.01 206.07 144.926C206.532 145.835 207.172 146.529 207.991 147.006C208.809 147.476 209.76 147.71 210.843 147.71C211.547 147.71 212.184 147.612 212.752 147.415C213.328 147.21 213.824 146.907 214.241 146.506C214.657 146.097 214.979 145.589 215.207 144.983L217.797 145.71C217.525 146.589 217.066 147.362 216.422 148.029C215.779 148.688 214.983 149.203 214.036 149.574C213.089 149.938 212.025 150.119 210.843 150.119ZM229.741 132.301V134.574H220.695V132.301H229.741ZM223.332 128.119H226.013V144.756C226.013 145.513 226.123 146.082 226.343 146.46C226.57 146.832 226.858 147.082 227.207 147.21C227.563 147.332 227.938 147.392 228.332 147.392C228.627 147.392 228.869 147.377 229.059 147.347C229.248 147.309 229.4 147.279 229.513 147.256L230.059 149.665C229.877 149.733 229.623 149.801 229.297 149.869C228.972 149.945 228.559 149.983 228.059 149.983C227.301 149.983 226.559 149.82 225.832 149.494C225.112 149.169 224.513 148.673 224.036 148.006C223.566 147.339 223.332 146.498 223.332 145.483V128.119ZM240.905 150.119C239.224 150.119 237.773 149.748 236.553 149.006C235.341 148.256 234.405 147.21 233.746 145.869C233.095 144.521 232.769 142.953 232.769 141.165C232.769 139.377 233.095 137.801 233.746 136.438C234.405 135.066 235.322 133.998 236.496 133.233C237.678 132.46 239.057 132.074 240.633 132.074C241.542 132.074 242.44 132.226 243.326 132.529C244.212 132.832 245.019 133.324 245.746 134.006C246.474 134.68 247.053 135.574 247.485 136.688C247.917 137.801 248.133 139.173 248.133 140.801V141.938H234.678V139.619H245.405C245.405 138.635 245.208 137.756 244.815 136.983C244.428 136.21 243.875 135.601 243.155 135.154C242.443 134.707 241.602 134.483 240.633 134.483C239.565 134.483 238.64 134.748 237.86 135.279C237.087 135.801 236.493 136.483 236.076 137.324C235.659 138.165 235.451 139.066 235.451 140.029V141.574C235.451 142.892 235.678 144.01 236.133 144.926C236.595 145.835 237.235 146.529 238.053 147.006C238.871 147.476 239.822 147.71 240.905 147.71C241.61 147.71 242.246 147.612 242.815 147.415C243.39 147.21 243.886 146.907 244.303 146.506C244.72 146.097 245.042 145.589 245.269 144.983L247.86 145.71C247.587 146.589 247.129 147.362 246.485 148.029C245.841 148.688 245.046 149.203 244.099 149.574C243.152 149.938 242.087 150.119 240.905 150.119ZM258.803 150.119C257.349 150.119 256.065 149.752 254.951 149.017C253.837 148.275 252.966 147.229 252.337 145.881C251.708 144.525 251.394 142.923 251.394 141.074C251.394 139.241 251.708 137.65 252.337 136.301C252.966 134.953 253.841 133.911 254.962 133.176C256.083 132.441 257.379 132.074 258.849 132.074C259.985 132.074 260.883 132.263 261.542 132.642C262.208 133.013 262.716 133.438 263.065 133.915C263.421 134.385 263.697 134.771 263.894 135.074H264.121V126.483H266.803V149.756H264.212V147.074H263.894C263.697 147.392 263.417 147.794 263.053 148.279C262.69 148.756 262.171 149.184 261.496 149.563C260.822 149.934 259.924 150.119 258.803 150.119ZM259.167 147.71C260.243 147.71 261.152 147.43 261.894 146.869C262.636 146.301 263.201 145.517 263.587 144.517C263.974 143.51 264.167 142.347 264.167 141.029C264.167 139.726 263.977 138.585 263.599 137.608C263.22 136.623 262.659 135.858 261.917 135.313C261.174 134.76 260.258 134.483 259.167 134.483C258.03 134.483 257.083 134.775 256.326 135.358C255.576 135.934 255.011 136.718 254.633 137.71C254.261 138.695 254.076 139.801 254.076 141.029C254.076 142.271 254.265 143.4 254.644 144.415C255.03 145.423 255.599 146.226 256.349 146.824C257.106 147.415 258.046 147.71 259.167 147.71ZM289.224 126.483V149.756H286.405V129.438H286.269L280.587 133.21V130.347L286.405 126.483H289.224ZM295.917 149.756V147.71L303.599 139.301C304.5 138.316 305.243 137.46 305.826 136.733C306.409 135.998 306.841 135.309 307.121 134.665C307.409 134.013 307.553 133.332 307.553 132.619C307.553 131.801 307.356 131.093 306.962 130.494C306.576 129.896 306.046 129.434 305.371 129.108C304.697 128.782 303.94 128.619 303.099 128.619C302.205 128.619 301.424 128.805 300.758 129.176C300.099 129.54 299.587 130.051 299.224 130.71C298.868 131.369 298.69 132.142 298.69 133.029H296.008C296.008 131.665 296.322 130.468 296.951 129.438C297.58 128.407 298.436 127.604 299.519 127.029C300.61 126.453 301.833 126.165 303.19 126.165C304.553 126.165 305.761 126.453 306.815 127.029C307.868 127.604 308.693 128.381 309.292 129.358C309.89 130.335 310.19 131.423 310.19 132.619C310.19 133.476 310.034 134.313 309.724 135.131C309.421 135.941 308.89 136.847 308.133 137.847C307.383 138.839 306.341 140.051 305.008 141.483L299.78 147.074V147.256H310.599V149.756H295.917ZM331.428 150.119C329.792 150.119 328.383 149.733 327.201 148.96C326.019 148.188 325.11 147.123 324.474 145.767C323.837 144.411 323.519 142.862 323.519 141.119C323.519 139.347 323.845 137.782 324.496 136.426C325.155 135.063 326.072 133.998 327.246 133.233C328.428 132.46 329.807 132.074 331.383 132.074C332.61 132.074 333.716 132.301 334.701 132.756C335.686 133.21 336.493 133.847 337.121 134.665C337.75 135.483 338.14 136.438 338.292 137.529H335.61C335.405 136.733 334.951 136.029 334.246 135.415C333.549 134.794 332.61 134.483 331.428 134.483C330.383 134.483 329.466 134.756 328.678 135.301C327.898 135.839 327.288 136.601 326.849 137.585C326.417 138.563 326.201 139.71 326.201 141.029C326.201 142.377 326.413 143.551 326.837 144.551C327.269 145.551 327.875 146.328 328.655 146.881C329.443 147.434 330.368 147.71 331.428 147.71C332.125 147.71 332.758 147.589 333.326 147.347C333.894 147.104 334.375 146.756 334.769 146.301C335.163 145.847 335.443 145.301 335.61 144.665H338.292C338.14 145.695 337.765 146.623 337.167 147.449C336.576 148.267 335.792 148.919 334.815 149.404C333.845 149.881 332.716 150.119 331.428 150.119ZM347.349 150.165C346.243 150.165 345.239 149.957 344.337 149.54C343.436 149.116 342.72 148.506 342.19 147.71C341.659 146.907 341.394 145.938 341.394 144.801C341.394 143.801 341.591 142.991 341.985 142.369C342.379 141.741 342.905 141.248 343.565 140.892C344.224 140.536 344.951 140.271 345.746 140.097C346.549 139.915 347.356 139.771 348.167 139.665C349.227 139.529 350.087 139.426 350.746 139.358C351.413 139.282 351.898 139.157 352.201 138.983C352.511 138.809 352.667 138.506 352.667 138.074V137.983C352.667 136.862 352.36 135.991 351.746 135.369C351.14 134.748 350.22 134.438 348.985 134.438C347.705 134.438 346.701 134.718 345.974 135.279C345.246 135.839 344.735 136.438 344.44 137.074L341.894 136.165C342.349 135.104 342.955 134.279 343.712 133.688C344.477 133.089 345.311 132.673 346.212 132.438C347.121 132.195 348.015 132.074 348.894 132.074C349.455 132.074 350.099 132.142 350.826 132.279C351.561 132.407 352.269 132.676 352.951 133.085C353.64 133.494 354.212 134.112 354.667 134.938C355.121 135.763 355.349 136.869 355.349 138.256V149.756H352.667V147.392H352.53C352.349 147.771 352.046 148.176 351.621 148.608C351.197 149.04 350.633 149.407 349.928 149.71C349.224 150.013 348.364 150.165 347.349 150.165ZM347.758 147.756C348.818 147.756 349.712 147.548 350.44 147.131C351.174 146.714 351.727 146.176 352.099 145.517C352.477 144.858 352.667 144.165 352.667 143.438V140.983C352.553 141.119 352.303 141.244 351.917 141.358C351.538 141.464 351.099 141.559 350.599 141.642C350.106 141.718 349.625 141.786 349.155 141.847C348.693 141.9 348.318 141.945 348.03 141.983C347.333 142.074 346.682 142.222 346.076 142.426C345.477 142.623 344.993 142.923 344.621 143.324C344.258 143.718 344.076 144.256 344.076 144.938C344.076 145.869 344.421 146.574 345.11 147.051C345.807 147.521 346.69 147.756 347.758 147.756ZM360.243 149.756V132.301H362.834V134.938H363.016C363.334 134.074 363.91 133.373 364.743 132.835C365.577 132.298 366.516 132.029 367.562 132.029C367.759 132.029 368.005 132.032 368.3 132.04C368.596 132.048 368.819 132.059 368.971 132.074V134.801C368.88 134.779 368.672 134.744 368.346 134.699C368.028 134.646 367.69 134.619 367.334 134.619C366.486 134.619 365.728 134.798 365.062 135.154C364.403 135.502 363.88 135.987 363.493 136.608C363.115 137.222 362.925 137.923 362.925 138.71V149.756H360.243ZM378.209 150.119C376.755 150.119 375.471 149.752 374.357 149.017C373.243 148.275 372.372 147.229 371.743 145.881C371.115 144.525 370.8 142.923 370.8 141.074C370.8 139.241 371.115 137.65 371.743 136.301C372.372 134.953 373.247 133.911 374.368 133.176C375.49 132.441 376.785 132.074 378.255 132.074C379.391 132.074 380.289 132.263 380.948 132.642C381.615 133.013 382.122 133.438 382.471 133.915C382.827 134.385 383.103 134.771 383.3 135.074H383.528V126.483H386.209V149.756H383.618V147.074H383.3C383.103 147.392 382.823 147.794 382.459 148.279C382.096 148.756 381.577 149.184 380.903 149.563C380.228 149.934 379.331 150.119 378.209 150.119ZM378.573 147.71C379.649 147.71 380.558 147.43 381.3 146.869C382.043 146.301 382.607 145.517 382.993 144.517C383.38 143.51 383.573 142.347 383.573 141.029C383.573 139.726 383.384 138.585 383.005 137.608C382.626 136.623 382.065 135.858 381.323 135.313C380.581 134.76 379.664 134.483 378.573 134.483C377.437 134.483 376.49 134.775 375.732 135.358C374.982 135.934 374.418 136.718 374.039 137.71C373.668 138.695 373.482 139.801 373.482 141.029C373.482 142.271 373.672 143.4 374.05 144.415C374.437 145.423 375.005 146.226 375.755 146.824C376.512 147.415 377.452 147.71 378.573 147.71ZM403.857 136.21L401.448 136.892C401.297 136.491 401.073 136.101 400.778 135.722C400.49 135.335 400.096 135.017 399.596 134.767C399.096 134.517 398.456 134.392 397.675 134.392C396.607 134.392 395.717 134.638 395.005 135.131C394.3 135.616 393.948 136.233 393.948 136.983C393.948 137.65 394.19 138.176 394.675 138.563C395.16 138.949 395.918 139.271 396.948 139.529L399.539 140.165C401.1 140.544 402.262 141.123 403.028 141.904C403.793 142.676 404.175 143.673 404.175 144.892C404.175 145.892 403.887 146.786 403.312 147.574C402.743 148.362 401.948 148.983 400.925 149.438C399.903 149.892 398.713 150.119 397.357 150.119C395.577 150.119 394.103 149.733 392.937 148.96C391.77 148.188 391.031 147.059 390.721 145.574L393.266 144.938C393.509 145.877 393.967 146.582 394.641 147.051C395.323 147.521 396.213 147.756 397.312 147.756C398.562 147.756 399.554 147.491 400.289 146.96C401.031 146.423 401.403 145.779 401.403 145.029C401.403 144.423 401.19 143.915 400.766 143.506C400.342 143.089 399.69 142.779 398.812 142.574L395.903 141.892C394.304 141.513 393.13 140.926 392.38 140.131C391.637 139.328 391.266 138.324 391.266 137.119C391.266 136.135 391.543 135.263 392.096 134.506C392.656 133.748 393.418 133.154 394.38 132.722C395.35 132.29 396.448 132.074 397.675 132.074C399.403 132.074 400.759 132.453 401.743 133.21C402.736 133.968 403.44 134.968 403.857 136.21Z" fill="#8889A1"/>
<path d="M110.279 92.9717V66.7899H115.022V88.9958H126.553V92.9717H110.279ZM139.158 93.3552C137.189 93.3552 135.489 92.9461 134.057 92.1279C132.634 91.3012 131.539 90.1336 130.772 88.6251C130.005 87.108 129.621 85.3225 129.621 83.2686C129.621 81.2487 130.005 79.4759 130.772 77.9504C131.547 76.4163 132.63 75.2231 134.019 74.3708C135.408 73.51 137.04 73.0796 138.915 73.0796C140.125 73.0796 141.267 73.2757 142.341 73.6677C143.424 74.0512 144.378 74.6478 145.205 75.4575C146.04 76.2671 146.696 77.2984 147.174 78.5512C147.651 79.7955 147.889 81.2785 147.889 83.0001V84.4191H131.794V81.2998H143.453C143.445 80.4134 143.253 79.6251 142.878 78.9347C142.503 78.2359 141.979 77.6862 141.306 77.2856C140.641 76.885 139.865 76.6847 138.979 76.6847C138.033 76.6847 137.202 76.9149 136.486 77.3751C135.77 77.8268 135.212 78.4234 134.811 79.1649C134.419 79.8978 134.219 80.7032 134.21 81.5811V84.3041C134.21 85.4461 134.419 86.4262 134.837 87.2444C135.255 88.0541 135.838 88.6762 136.588 89.1109C137.338 89.537 138.216 89.7501 139.222 89.7501C139.895 89.7501 140.505 89.6563 141.05 89.4688C141.595 89.2728 142.068 88.9873 142.469 88.6123C142.87 88.2373 143.172 87.7728 143.377 87.2188L147.698 87.7046C147.425 88.8467 146.905 89.8438 146.138 90.6961C145.38 91.5399 144.408 92.1961 143.223 92.6649C142.039 93.1251 140.684 93.3552 139.158 93.3552ZM157.455 93.368C156.211 93.368 155.09 93.1464 154.093 92.7032C153.104 92.2515 152.32 91.5867 151.741 90.7089C151.17 89.8311 150.884 88.7487 150.884 87.4617C150.884 86.3538 151.089 85.4376 151.498 84.7132C151.907 83.9887 152.465 83.4092 153.172 82.9745C153.88 82.5399 154.677 82.2117 155.563 81.9901C156.458 81.76 157.383 81.5938 158.337 81.4916C159.488 81.3722 160.421 81.2657 161.137 81.172C161.853 81.0697 162.373 80.9163 162.697 80.7117C163.029 80.4987 163.195 80.1705 163.195 79.7274V79.6507C163.195 78.6876 162.91 77.9418 162.339 77.4134C161.768 76.885 160.945 76.6208 159.871 76.6208C158.738 76.6208 157.839 76.868 157.174 77.3623C156.518 77.8566 156.074 78.4404 155.844 79.1137L151.523 78.5001C151.864 77.3069 152.427 76.3097 153.211 75.5086C153.995 74.699 154.954 74.0938 156.087 73.6933C157.221 73.2842 158.474 73.0796 159.846 73.0796C160.792 73.0796 161.734 73.1904 162.671 73.412C163.609 73.6336 164.465 74.0001 165.241 74.5115C166.016 75.0143 166.638 75.7004 167.107 76.5697C167.584 77.439 167.823 78.5257 167.823 79.8296V92.9717H163.374V90.2742H163.221C162.94 90.8197 162.543 91.3311 162.032 91.8083C161.529 92.2771 160.894 92.6563 160.127 92.9461C159.369 93.2274 158.478 93.368 157.455 93.368ZM158.657 89.9674C159.586 89.9674 160.391 89.7842 161.073 89.4177C161.755 89.0427 162.279 88.5484 162.646 87.9347C163.021 87.3211 163.208 86.6521 163.208 85.9276V83.6137C163.063 83.733 162.816 83.8438 162.467 83.9461C162.126 84.0484 161.742 84.1379 161.316 84.2146C160.89 84.2913 160.468 84.3595 160.05 84.4191C159.633 84.4788 159.271 84.5299 158.964 84.5725C158.273 84.6663 157.655 84.8197 157.11 85.0328C156.565 85.2458 156.134 85.5441 155.819 85.9276C155.503 86.3026 155.346 86.7884 155.346 87.385C155.346 88.2373 155.657 88.8808 156.279 89.3154C156.901 89.7501 157.694 89.9674 158.657 89.9674ZM172.476 92.9717V73.3353H176.964V76.608H177.168C177.526 75.4745 178.14 74.6009 179.009 73.9873C179.887 73.3651 180.888 73.0541 182.013 73.0541C182.269 73.0541 182.555 73.0668 182.87 73.0924C183.194 73.1095 183.462 73.1393 183.675 73.1819V77.439C183.479 77.3708 183.168 77.3112 182.742 77.26C182.324 77.2004 181.92 77.1705 181.528 77.1705C180.684 77.1705 179.925 77.3538 179.252 77.7203C178.587 78.0782 178.063 78.5768 177.68 79.216C177.296 79.8552 177.104 80.5924 177.104 81.4276V92.9717H172.476ZM191.378 81.466V92.9717H186.75V73.3353H191.173V76.672H191.403C191.855 75.5725 192.575 74.699 193.564 74.0512C194.561 73.4035 195.793 73.0796 197.258 73.0796C198.614 73.0796 199.794 73.3694 200.8 73.949C201.814 74.5285 202.598 75.368 203.152 76.4674C203.714 77.5668 203.991 78.9007 203.983 80.4688V92.9717H199.355V81.1847C199.355 79.8722 199.014 78.8453 198.332 78.1038C197.659 77.3623 196.726 76.9916 195.533 76.9916C194.723 76.9916 194.003 77.1705 193.372 77.5285C192.75 77.8779 192.26 78.385 191.902 79.0498C191.552 79.7146 191.378 80.52 191.378 81.466ZM208.687 92.9717V73.3353H213.315V92.9717H208.687ZM211.014 70.5484C210.281 70.5484 209.65 70.3055 209.122 69.8197C208.594 69.3254 208.329 68.733 208.329 68.0427C208.329 67.3438 208.594 66.7515 209.122 66.2657C209.65 65.7714 210.281 65.5242 211.014 65.5242C211.756 65.5242 212.386 65.7714 212.906 66.2657C213.435 66.7515 213.699 67.3438 213.699 68.0427C213.699 68.733 213.435 69.3254 212.906 69.8197C212.386 70.3055 211.756 70.5484 211.014 70.5484ZM222.702 81.466V92.9717H218.074V73.3353H222.497V76.672H222.728C223.179 75.5725 223.899 74.699 224.888 74.0512C225.885 73.4035 227.117 73.0796 228.583 73.0796C229.938 73.0796 231.118 73.3694 232.124 73.949C233.138 74.5285 233.922 75.368 234.476 76.4674C235.039 77.5668 235.316 78.9007 235.307 80.4688V92.9717H230.679V81.1847C230.679 79.8722 230.338 78.8453 229.657 78.1038C228.983 77.3623 228.05 76.9916 226.857 76.9916C226.047 76.9916 225.327 77.1705 224.696 77.5285C224.074 77.8779 223.584 78.385 223.226 79.0498C222.877 79.7146 222.702 80.52 222.702 81.466ZM248.551 100.744C246.889 100.744 245.462 100.519 244.269 100.067C243.076 99.6237 242.117 99.0271 241.392 98.2771C240.668 97.5271 240.165 96.6961 239.884 95.7842L244.051 94.7742C244.239 95.1578 244.512 95.537 244.87 95.912C245.228 96.2955 245.709 96.6109 246.314 96.858C246.928 97.1137 247.699 97.2416 248.628 97.2416C249.941 97.2416 251.027 96.922 251.888 96.2828C252.749 95.6521 253.179 94.6123 253.179 93.1634V89.4433H252.949C252.71 89.9205 252.361 90.4106 251.901 90.9134C251.449 91.4163 250.848 91.8382 250.098 92.1791C249.357 92.52 248.424 92.6904 247.299 92.6904C245.79 92.6904 244.422 92.3367 243.195 91.6294C241.976 90.9134 241.005 89.8481 240.28 88.4333C239.564 87.01 239.206 85.2288 239.206 83.0896C239.206 80.9333 239.564 79.1137 240.28 77.6308C241.005 76.1393 241.98 75.01 243.208 74.243C244.435 73.4674 245.803 73.0796 247.311 73.0796C248.462 73.0796 249.408 73.2757 250.149 73.6677C250.899 74.0512 251.496 74.5157 251.939 75.0612C252.382 75.5981 252.719 76.1052 252.949 76.5825H253.205V73.3353H257.769V93.2913C257.769 94.9703 257.368 96.3595 256.567 97.4589C255.766 98.5583 254.671 99.3808 253.282 99.9262C251.892 100.472 250.316 100.744 248.551 100.744ZM248.59 89.0597C249.57 89.0597 250.405 88.8211 251.095 88.3438C251.786 87.8666 252.31 87.1805 252.668 86.2856C253.026 85.3907 253.205 84.3168 253.205 83.064C253.205 81.8282 253.026 80.7458 252.668 79.8168C252.318 78.8879 251.799 78.1677 251.108 77.6563C250.426 77.1365 249.587 76.8765 248.59 76.8765C247.559 76.8765 246.698 77.145 246.007 77.6819C245.317 78.2188 244.797 78.9561 244.448 79.8936C244.098 80.8225 243.924 81.8793 243.924 83.064C243.924 84.2657 244.098 85.3183 244.448 86.2217C244.806 87.1166 245.33 87.8154 246.02 88.3183C246.719 88.8126 247.576 89.0597 248.59 89.0597Z" fill="#4A4848"/>
<rect x="121.186" y="103.236" width="74.1928" height="14.8728" rx="7.4364" fill="#EAEFFD"/>
<defs>
<filter id="filter0_d_148_181" x="0" y="0" width="731" height="265" filterUnits="userSpaceOnUse" color-interpolation-filters="sRGB">
<feFlood flood-opacity="0" result="BackgroundImageFix"/>
<feColorMatrix in="SourceAlpha" type="matrix" values="0 0 0 0 0 0 0 0 0 0 0 0 0 0 0 0 0 0 127 0" result="hardAlpha"/>
<feOffset dx="3" dy="27"/>
<feGaussianBlur stdDeviation="20.5"/>
<feComposite in2="hardAlpha" operator="out"/>
<feColorMatrix type="matrix" values="0 0 0 0 0.837274 0 0 0 0 0.86471 0 0 0 0 0.870732 0 0 0 0.25 0"/>
<feBlend mode="normal" in2="BackgroundImageFix" result="effect1_dropShadow_148_181"/>
<feBlend mode="normal" in="SourceGraphic" in2="effect1_dropShadow_148_181" result="shape"/>
</filter>
</defs>
</svg>
