<?xml version="1.0" encoding="utf-8"?>
<!-- Generator: Adobe Illustrator 26.0.2, SVG Export Plug-In . SVG Version: 6.00 Build 0)  -->
<svg version="1.1" id="outline" xmlns="http://www.w3.org/2000/svg" xmlns:xlink="http://www.w3.org/1999/xlink" x="0px" y="0px"
	 viewBox="0 0 430 430" style="enable-background:new 0 0 430 430;" xml:space="preserve">
<style type="text/css">
	.st0{fill:url(#SVGID_1_);}
	.st1{fill:url(#SVGID_00000147182654290932728510000016378573643145391780_);}
	.st2{fill:url(#SVGID_00000163070257096789022160000010749478110010730637_);}
	.st3{fill:url(#SVGID_00000038378394535121801640000017751717684406189224_);}
	.st4{fill:url(#SVGID_00000085216873305288748070000013757304546081143682_);}
	.st5{fill:url(#SVGID_00000061435154725706182160000008169418134920577190_);}
	.st6{fill:url(#SVGID_00000020388905966203937670000000888798738916319913_);}
	.st7{fill:url(#SVGID_00000083056875955793910550000010052231087278336671_);}
	.st8{fill:url(#SVGID_00000049911370893717421390000011573816558345071268_);}
	.st9{fill:url(#SVGID_00000019677012015986075780000008030169998645490055_);}
	.st10{fill:url(#SVGID_00000109011303711695978580000015144614013493431429_);}
	.st11{fill:url(#SVGID_00000163061612422769879830000002173853331314526902_);}
	.st12{fill:url(#SVGID_00000078727306724408403810000005441224767660383879_);}
	.st13{fill:url(#SVGID_00000084488051335893995660000016094151869315011507_);}
	.st14{fill:url(#SVGID_00000024695236707937388280000015867661649374134419_);}
	.st15{fill:url(#SVGID_00000083788385814611721610000007522973944867288732_);}
	.st16{fill:url(#SVGID_00000015332365268861069920000015359782693031409565_);}
	.st17{fill:url(#SVGID_00000060015021836394383620000012090817719239814276_);}
	.st18{fill:url(#SVGID_00000183218797855138560790000012950321588881911472_);}
	.st19{fill:url(#SVGID_00000089571963441356419250000018388412392975093927_);}
	.st20{fill:url(#SVGID_00000020386459517399734000000002389054650573867700_);}
	.st21{fill:url(#SVGID_00000000198698382833400470000013830575082631942543_);}
	.st22{fill:url(#SVGID_00000042018216136279260340000015459020618030300576_);}
	.st23{fill:url(#SVGID_00000139990735388633204910000010027097598967005355_);}
	.st24{fill:url(#SVGID_00000105404946622766177460000012304951610323124157_);}
	.st25{fill:url(#SVGID_00000036239268795511854930000000238559986408305552_);}
	.st26{fill:url(#SVGID_00000181087176692530104590000015966523747830280895_);}
	.st27{fill:url(#SVGID_00000083090216473124975640000017267758385454207411_);}
	.st28{fill:url(#SVGID_00000003093406294078864750000013544667302975627931_);}
	.st29{fill:url(#SVGID_00000157302084863696429470000006420066639300917940_);}
	.st30{fill:url(#SVGID_00000151537796718027036370000013721466111284965010_);}
	.st31{fill:url(#SVGID_00000099654530476698329960000011219012794349476542_);}
	.st32{fill:url(#SVGID_00000119104236908277325770000012068327458405953711_);}
	.st33{fill:url(#SVGID_00000024702300684916125890000008514448335728138381_);}
	.st34{fill:url(#SVGID_00000139983227613351444110000015637052164899869354_);}
	.st35{fill:url(#SVGID_00000047036059962750370000000015309370338025195665_);}
	.st36{fill:url(#SVGID_00000082357554189249153420000011440337647648227489_);}
	.st37{fill:url(#SVGID_00000093899107205022620840000013511349333669648314_);}
	.st38{fill:url(#SVGID_00000096771741778380923090000001782260384300963211_);}
	.st39{fill:url(#SVGID_00000146474438310163315760000014390446644905880990_);}
	.st40{fill:url(#SVGID_00000082356215694334300170000001425693647473102227_);}
	.st41{fill:url(#SVGID_00000136392121184898222820000008124654269458254259_);}
	.st42{fill:url(#SVGID_00000026148933724331282050000015296719867589537694_);}
</style>
<linearGradient id="SVGID_1_" gradientUnits="userSpaceOnUse" x1="68.5628" y1="91.4914" x2="335.4196" y2="358.3483">
	<stop  offset="0" style="stop-color:#cb5eee"/>
	<stop  offset="1" style="stop-color:#4be1ec"/>
</linearGradient>
<path class="st0" d="M299.51,248.83c-16.92-7.64-37.97-9.62-56.72-6.56c-6.56-7.57-13.81-15.36-21.52-23.07
	c-8.97-8.97-18.03-17.31-26.75-24.66c0.36-27.71-8.14-58.43-24.27-80.78c-21.14-29.3-52.56-41.41-88.46-34.09
	c-3.25,0.66-5.34,3.83-4.68,7.08c0.66,3.25,3.83,5.35,7.08,4.68c39.74-8.09,63.45,11.5,76.33,29.36
	c13.51,18.72,20.36,42.23,21.68,63.85c-4.01-3.05-7.88-5.83-11.58-8.3c-18.32-12.21-29.68-15.1-35.74-9.11
	c-0.01,0.01-0.03,0.02-0.04,0.03l-0.01,0.01c0,0,0,0,0,0c-1.67,1.67-2.63,3.76-2.93,6.28L60.2,363.51
	c-1.83,4.84-0.69,10.13,2.97,13.79c2.51,2.51,5.77,3.83,9.14,3.83c1.55,0,3.12-0.28,4.65-0.86l189.89-71.66
	c2.46-0.28,4.51-1.21,6.17-2.8c0.02-0.02,0.04-0.03,0.06-0.04c0.01-0.01,0.02-0.02,0.03-0.04c0.03-0.03,0.06-0.05,0.09-0.08
	c0,0,0-0.01,0.01-0.01c6.04-6.05,3.16-17.42-9.08-35.79c-3.49-5.25-7.63-10.85-12.27-16.67c13.98-1.25,29.3,0.53,42.72,6.58
	c14.06,6.35,30.82,19.89,30.82,48.31c0,3.31,2.69,6,6,6c3.31,0,6-2.69,6-6C337.4,280.9,323.94,259.86,299.51,248.83z M229.55,245.4
	c-8.54,2.72-16.13,6.64-21.99,11.69c-4.11-3.8-8.23-7.77-12.32-11.86c-3.24-3.24-6.41-6.51-9.48-9.77
	c3.79-7.64,6.31-16.49,7.64-26.02c6.41,5.67,12.94,11.8,19.38,18.25C218.67,233.57,224.3,239.53,229.55,245.4z M182.19,199.92
	c-0.62,9.64-2.42,18.48-5.28,25.84c-8.07-9.14-15.18-18.03-20.8-26.07c-9.22-13.2-11.86-20.49-12.3-23.42
	c2.94,0.44,10.22,3.08,23.42,12.3C171.97,191.86,177,195.69,182.19,199.92z M72.72,369.04c-0.15,0.06-0.61,0.23-1.06-0.23
	c-0.46-0.46-0.29-0.91-0.23-1.06l66.1-175.16c1.73,3.21,3.84,6.69,6.36,10.48c10.02,15.04,25.24,33.03,42.86,50.65
	c17.62,17.62,35.61,32.84,50.65,42.86c3.78,2.52,7.26,4.64,10.46,6.37L72.72,369.04z M251.91,273.23
	c9.22,13.2,11.86,20.49,12.3,23.42c-2.94-0.43-10.22-3.08-23.42-12.3c-7.5-5.23-15.73-11.76-24.21-19.16
	c5.37-4.21,12.94-7.59,21.64-9.75C243.38,261.65,248.01,267.65,251.91,273.23z M339.08,146.3c2.47,2.21,2.68,6,0.47,8.47
	c-7.15,7.99-17.21,6.02-24.55,4.57c-7.27-1.43-10.96-1.82-13.29,0.8c-2.34,2.62-1.54,6.23,0.69,13.3
	c2.25,7.14,5.34,16.92-1.81,24.91c-7.15,8-17.21,6.02-24.55,4.58c-7.27-1.43-10.96-1.82-13.3,0.8c-1.19,1.33-2.83,2-4.47,2
	c-1.42,0-2.85-0.5-4-1.53c-2.47-2.21-2.68-6-0.47-8.47c7.15-8,17.21-6.02,24.55-4.58c7.27,1.43,10.96,1.82,13.3-0.8
	c2.34-2.62,1.54-6.23-0.69-13.3c-2.25-7.14-5.34-16.92,1.81-24.91c7.15-8,17.21-6.02,24.55-4.57c7.27,1.43,10.96,1.82,13.29-0.8
	C332.82,144.3,336.61,144.09,339.08,146.3z M224.08,100.81c-0.35-10.72,8.3-16.23,14.61-20.26c6.25-3.99,9.18-6.25,9.07-9.75
	c-0.11-3.31,2.49-6.08,5.8-6.19c3.34-0.1,6.08,2.49,6.19,5.8c0.35,10.72-8.3,16.23-14.61,20.26c-6.25,3.99-9.18,6.25-9.07,9.75
	c0.11,3.51,3.19,5.58,9.68,9.15c6.56,3.61,15.54,8.55,15.89,19.27c0.35,10.72-8.3,16.23-14.61,20.26c-6.25,3.99-9.18,6.25-9.07,9.76
	c0.11,3.31-2.49,6.08-5.8,6.19c-0.07,0-0.13,0-0.2,0c-3.22,0-5.89-2.56-5.99-5.81c-0.35-10.72,8.3-16.23,14.61-20.26
	c6.25-3.99,9.18-6.25,9.07-9.75c-0.11-3.51-3.19-5.58-9.68-9.15C233.41,116.47,224.43,111.53,224.08,100.81z M181.03,69.75
	l7.28-12.24c1.69-2.85,5.37-3.78,8.22-2.09c2.85,1.69,3.78,5.38,2.09,8.22l-7.28,12.24c-1.12,1.89-3.12,2.93-5.16,2.93
	c-1.04,0-2.1-0.27-3.06-0.84C180.27,76.28,179.34,72.6,181.03,69.75z M334.12,353.18c1.72,2.83,0.82,6.52-2.02,8.24l-15.3,9.28
	c-0.97,0.59-2.05,0.87-3.11,0.87c-2.03,0-4.01-1.03-5.14-2.89c-1.72-2.83-0.82-6.52,2.02-8.24l15.3-9.28
	C328.71,349.44,332.4,350.35,334.12,353.18z M386.28,286.42L379,298.66c-1.12,1.89-3.12,2.93-5.16,2.93c-1.04,0-2.1-0.27-3.06-0.84
	c-2.85-1.69-3.78-5.38-2.09-8.22l7.28-12.24c1.69-2.85,5.38-3.78,8.22-2.09C387.03,279.89,387.97,283.57,386.28,286.42z
	 M60.64,238.2c-2.34-2.34-2.34-6.14,0-8.48l10.07-10.07c2.34-2.34,6.14-2.34,8.49,0c2.34,2.34,2.34,6.14,0,8.48L69.12,238.2
	c-1.17,1.17-2.71,1.76-4.24,1.76S61.81,239.37,60.64,238.2z M350.36,90.58c-1.17,1.17-2.71,1.76-4.24,1.76s-3.07-0.59-4.24-1.76
	L331.8,80.51c-2.34-2.34-2.34-6.14,0-8.48c2.34-2.34,6.14-2.34,8.49,0l10.07,10.07C352.7,84.43,352.7,88.23,350.36,90.58z
	 M227.52,363.44c1.2,3.09-0.34,6.56-3.43,7.76c-0.71,0.28-1.44,0.41-2.16,0.41c-2.41,0-4.68-1.46-5.6-3.84l-5.14-13.28
	c-1.2-3.09,0.34-6.56,3.43-7.76c3.09-1.2,6.57,0.34,7.76,3.43L227.52,363.44z M88.78,142.57c-2.51-2.16-2.8-5.95-0.63-8.46
	c2.16-2.51,5.95-2.8,8.46-0.63l10.79,9.29c2.51,2.16,2.8,5.95,0.63,8.46c-1.19,1.38-2.86,2.09-4.55,2.09
	c-1.39,0-2.78-0.48-3.91-1.45L88.78,142.57z M363.52,213.41c0.9,3.19-0.96,6.5-4.15,7.4c-0.54,0.15-1.09,0.23-1.63,0.23
	c-2.62,0-5.03-1.73-5.77-4.38l-3.86-13.71c-0.9-3.19,0.96-6.5,4.15-7.4c3.19-0.9,6.5,0.96,7.4,4.15L363.52,213.41z"/>
</svg>
